<svg width="147" height="23" viewBox="0 0 147 23" fill="none" xmlns="http://www.w3.org/2000/svg">
<path d="M7.05179 5.18264C5.02971 5.18264 3.31349 6.10022 2.39591 7.71449V0.0509796H0V11.6567C0 15.7348 2.78673 18.3346 6.66096 18.3346C10.5352 18.3346 13.4239 15.5989 13.4239 11.6737C13.4069 7.54456 10.3313 5.18264 7.05179 5.18264ZM6.67796 16.1257C4.12912 16.1257 2.39591 14.3075 2.39591 11.7756C2.39591 9.24379 4.11213 7.42562 6.67796 7.42562C9.24379 7.42562 10.977 9.24379 10.977 11.7756C10.977 14.3075 9.26078 16.1257 6.67796 16.1257Z" fill="#E5E5E5"/>
<path d="M21.4441 5.18271C17.5018 5.18271 14.7151 7.96944 14.7151 11.7587C14.7151 15.548 17.5018 18.3517 21.4441 18.3517C25.3863 18.3517 28.173 15.565 28.173 11.7757C28.173 7.98643 25.3863 5.18271 21.4441 5.18271ZM21.4441 16.1257C18.8612 16.1257 17.145 14.3076 17.145 11.7757C17.145 9.24386 18.8612 7.42569 21.4441 7.42569C24.0269 7.42569 25.7431 9.24386 25.7431 11.7757C25.7431 14.3076 24.0269 16.1257 21.4441 16.1257Z" fill="#E5E5E5"/>
<path d="M39.4221 5.5226V12.0476C39.4221 14.7494 37.9268 16.1258 35.6499 16.1258C33.3729 16.1258 31.8776 14.7664 31.8776 12.0476V5.5226H29.4817V12.0476C29.4817 16.2277 31.9625 18.3518 35.6499 18.3518C39.3372 18.3518 41.8181 16.1937 41.8181 12.0476V5.5226H39.4221Z" fill="#E5E5E5"/>
<path d="M43.534 0.0342255V18.3519H45.9299V0.0342255H43.534Z" fill="#E5E5E5"/>
<path d="M66.6436 5.08093V7.47683H64.7235V18.3519H62.3106V0.0342255H64.7235V5.08093H66.6436Z" fill="#E5E5E5"/>
<path d="M72.6589 5.08093V7.47683H70.7217V18.3519H68.3258V0.0342255H70.7217V5.08093H72.6589Z" fill="#E5E5E5"/>
<path d="M61.0532 11.7245C61.0532 7.93523 58.3174 5.1485 54.3752 5.1485C50.433 5.1485 47.6463 7.91824 47.6463 11.7245C47.6463 15.5308 50.433 18.3005 54.3752 18.3005C57.2809 18.3005 59.5578 16.8052 60.5264 14.4772H57.8756C57.1449 15.5648 56.0065 16.0745 54.3922 16.0745C52.2172 16.0745 50.5519 14.8341 50.1951 12.6081H61.0702L61.0532 11.7245ZM50.2631 10.4501C50.7389 8.47898 52.3191 7.35749 54.3922 7.35749C56.4653 7.35749 58.0625 8.445 58.5383 10.4501H50.2631Z" fill="#E5E5E5"/>
<path d="M86.0659 11.7245C86.0659 7.93523 83.3301 5.1485 79.3879 5.1485C75.4457 5.1485 72.659 7.91824 72.659 11.7245C72.659 15.5308 75.4457 18.3005 79.3879 18.3005C82.2936 18.3005 84.5706 16.8052 85.5391 14.4772H82.8883C82.1577 15.5648 81.0192 16.0745 79.4049 16.0745C77.2299 16.0745 75.5647 14.8341 75.2078 12.6081H86.0829L86.0659 11.7245ZM75.2588 10.4501C75.7346 8.47898 77.3149 7.35749 79.3879 7.35749C81.461 7.35749 83.0583 8.445 83.5341 10.4501H75.2588Z" fill="#E5E5E5"/>
<path d="M93.8991 4.14626C90.0249 4.14626 87.2382 6.74607 87.2382 10.8242V22.311H89.6341V14.7664C90.5347 16.3807 92.2679 17.2983 94.29 17.2983C97.5525 17.2983 100.645 14.9533 100.645 10.7902C100.662 6.88201 97.8753 4.14626 93.8991 4.14626ZM93.9331 15.0723C91.3843 15.0723 89.6511 13.2541 89.6511 10.7223C89.6511 8.19041 91.3673 6.37224 93.9331 6.37224C96.499 6.37224 98.2322 8.19041 98.2322 10.7223C98.2322 13.2541 96.499 15.0723 93.9331 15.0723Z" fill="#E5E5E5"/>
<path d="M108.36 7.37469C108.156 7.34071 107.952 7.32372 107.731 7.32372C105.93 7.32372 104.74 8.25829 104.74 10.5522V18.2837H102.344V10.5692C102.344 6.88192 104.519 5.09773 107.731 5.09773C108.258 5.09773 108.36 5.13172 108.36 5.13172V7.37469Z" fill="#E5E5E5"/>
<path d="M115.089 5.1485C111.146 5.1485 108.36 7.93523 108.36 11.7245C108.36 15.5138 111.146 18.3005 115.089 18.3005C119.031 18.3005 121.817 15.5138 121.817 11.7245C121.817 7.93523 119.031 5.1485 115.089 5.1485ZM115.089 16.0745C112.506 16.0745 110.79 14.2394 110.79 11.7245C110.79 9.20965 112.506 7.37448 115.089 7.37448C117.671 7.37448 119.388 9.19266 119.388 11.7245C119.388 14.2563 117.654 16.0745 115.089 16.0745Z" fill="#E5E5E5"/>
<path d="M129.787 5.1485C125.844 5.1485 123.058 7.93523 123.058 11.7245C123.058 15.5138 125.844 18.3005 129.787 18.3005C133.729 18.3005 136.516 15.5138 136.516 11.7245C136.516 7.93523 133.729 5.1485 129.787 5.1485ZM129.787 16.0745C127.204 16.0745 125.488 14.2563 125.488 11.7245C125.488 9.19266 127.204 7.37448 129.787 7.37448C132.369 7.37448 134.086 9.19266 134.086 11.7245C134.086 14.2563 132.369 16.0745 129.787 16.0745Z" fill="#E5E5E5"/>
<path d="M140.407 5.42077C140.407 5.28483 140.407 5.16589 140.424 5.06393C140.424 4.92799 140.441 4.80905 140.458 4.6901C140.475 4.57116 140.492 4.45221 140.526 4.33327C140.577 4.11237 140.645 3.90846 140.73 3.72154C140.815 3.53463 140.917 3.36471 141.036 3.22877C141.393 2.78697 141.868 2.51509 142.446 2.36216C142.548 2.34517 142.65 2.31119 142.752 2.31119C142.956 2.2772 143.177 2.26021 143.398 2.26021C143.619 2.26021 143.823 2.2772 144.026 2.31119V0.06821C144.026 0.06821 144.009 0.06821 143.942 0.0512177C143.925 0.0512177 143.908 0.0512177 143.891 0.0512177C143.721 0.0342255 143.568 0.0342255 143.398 0.0342255C142.99 0.0342255 142.616 0.06821 142.242 0.119187C142.106 0.136179 141.97 0.170164 141.834 0.204148C141.699 0.238133 141.563 0.272117 141.444 0.306102C141.359 0.323094 141.274 0.357078 141.189 0.391063C141.036 0.44204 140.866 0.510009 140.713 0.577978C140.56 0.645947 140.407 0.730908 140.271 0.815869C140.135 0.900831 139.999 0.985792 139.863 1.08775C139.659 1.24068 139.49 1.39361 139.32 1.58052C139.269 1.64849 139.201 1.69947 139.15 1.76744C139.099 1.8354 139.048 1.90337 138.997 1.95435C138.895 2.09029 138.81 2.22623 138.725 2.37916C138.674 2.44713 138.64 2.53209 138.606 2.60006C138.572 2.68502 138.521 2.75299 138.487 2.83795C138.453 2.92291 138.419 3.00787 138.385 3.09283C138.351 3.17779 138.334 3.26275 138.3 3.34772C138.266 3.43268 138.249 3.53463 138.215 3.61959C138.181 3.70455 138.164 3.80651 138.147 3.90846C138.13 3.99342 138.113 4.09537 138.096 4.18034C138.096 4.19733 138.079 4.21432 138.079 4.23131C138.062 4.31627 138.045 4.41823 138.045 4.50319C138.028 4.60514 138.011 4.7071 138.011 4.82604C137.994 4.928 137.994 5.04694 137.994 5.14889C137.994 5.23386 137.994 5.33581 137.994 5.43776V18.3179H140.39V9.71981H144.009V7.51082H140.39L140.407 5.42077Z" fill="#E5E5E5"/>
<path d="M145.505 17.9437C146.331 17.9437 147 17.2742 147 16.4484C147 15.6225 146.331 14.9531 145.505 14.9531C144.679 14.9531 144.009 15.6225 144.009 16.4484C144.009 17.2742 144.679 17.9437 145.505 17.9437Z" fill="url(#paint0_linear_1_12079)"/>
<defs>
<linearGradient id="paint0_linear_1_12079" x1="144.505" y1="17.4518" x2="146.607" y2="15.3491" gradientUnits="userSpaceOnUse">
<stop stop-color="#07BDCB"/>
<stop offset="1" stop-color="#00D064"/>
</linearGradient>
</defs>
</svg>
